
<!-- Created with Inkscape (http://www.inkscape.org/) -->
<svg xmlns:rdf="http://www.w3.org/1999/02/22-rdf-syntax-ns#" xmlns="http://www.w3.org/2000/svg" height="19.6875" width="88.7695" version="1.1" xmlns:cc="http://creativecommons.org/ns#" xmlns:dc="http://purl.org/dc/elements/1.1/">
<symbol id="nscc-logo" viewBox="0 0 88.7695 19.6875">
 <defs>
  <clipPath id="clip239">
   <path d="m93,565.27,17.2188,0,0,15.75-17.2188,0z"/>
  </clipPath>
  <clipPath id="clip238">
   <path d="m74,565.27,18,0,0,15.75-18,0z"/>
  </clipPath>
  <clipPath id="clip237">
   <path d="m57,565,17,0,0,16.5273-17,0z"/>
  </clipPath>
 </defs>
 <metadata>
  <rdf:RDF>
   <cc:Work rdf:about="">
    <dc:format>image/svg+xml</dc:format>
    <dc:type rdf:resource="http://purl.org/dc/dcmitype/StillImage"/>
    <dc:title/>
   </cc:Work>
  </rdf:RDF>
 </metadata>
 <path fill="currentColor" d="m3.28162,0.527,6.75293,0-0.5127,2.91504c2.06543-2.23634,4.08692-3.44239,6.89453-3.44239,4.90723,0,6.70899,2.87598,5.80567,7.99805l-1.9678,11.1523h-7.3926l1.73339-9.84375c0.33204-1.8457,0.12208-3.48144-1.97265-3.48144-2.27539,0-3.13965,1.45508-3.55469,3.84278l-1.67476,9.48241h-7.39258z" fill-rule="nonzero"/>
 <g clip-rule="nonzero" transform="matrix(1.25,0,0,1.25,-49.00391,-706.58691)" clip-path="url(#clip237)">
  <path fill="currentColor" d="m63.4766,575.961c-0.109374,0.59765,0.03906,1.04687,0.382813,1.35937,0.320313,0.28516,0.800781,0.45703,1.37109,0.45703,0.910156,0,1.92578-0.28515,2.11328-1.33593,0.421875-2.39063-9.04297-0.48047-8.02344-6.25782,0.664063-3.80859,4.81641-4.91406,7.91016-4.91406,3.25,0,6.92578,0.73828,6.57031,4.69141h-5.375c0.03125-0.48828-0.105469-0.82813-0.375-1.08594-0.269531-0.25-0.671875-0.36719-1.12891-0.36719-1.02344,0-1.73438,0.31641-1.86328,1.05469-0.367188,2.07422,9.28906,0.67969,8.30469,6.25391-0.546875,3.09375-3.47266,5.20312-8.93359,5.20312-3.41016,0-6.98047-1.05469-6.58203-5.05859z" fill-rule="nonzero"/>
 </g>
 <g clip-rule="nonzero" transform="matrix(1.25,0,0,1.25,-49.00391,-706.58691)" clip-path="url(#clip238)">
  <path fill="currentColor" d="m85.9492,571.379c0.08203-0.65625-0.05469-1.16407-0.355469-1.53516-0.300781-0.39453-0.777344-0.59375-1.43359-0.59375-2.21484,0-2.98828,2.30078-3.30078,4.0625-0.398437,2.24609,0.195313,3.71875,1.92578,3.71875,1.53906,0,2.32031-1.04297,2.69531-2.21094h5.96875c-0.648438,2.2461-1.94922,3.8086-3.63672,4.8086-1.64062,0.96093-3.65234,1.39062-5.72656,1.39062-4.80469,0-8.02344-2.69922-7.13672-7.73047,0.898437-5.08984,4.99609-8.01953,9.91406-8.01953,3.98047,0,7.42969,1.70313,7.07812,6.10938z" fill-rule="nonzero"/>
 </g>
 <g clip-rule="nonzero" transform="matrix(1.25,0,0,1.25,-49.00391,-706.58691)" clip-path="url(#clip239)">
  <path fill="currentColor" d="m104.195,571.379c0.0898-0.65625-0.0469-1.16407-0.34765-1.53516-0.30469-0.39453-0.78125-0.59375-1.4375-0.59375-2.21485,0-2.98828,2.30078-3.29688,4.0625-0.402343,2.24609,0.191407,3.71875,1.92578,3.71875,1.53516,0,2.32032-1.04297,2.69532-2.21094h5.97265c-0.65234,2.2461-1.95312,3.8086-3.63672,4.8086-1.64843,0.96093-3.66015,1.39062-5.73437,1.39062-4.80469,0-8.02344-2.69922-7.13672-7.73047,0.898437-5.08984,4.99609-8.01953,9.91406-8.01953,3.98438,0,7.42969,1.70313,7.08203,6.10938z" fill-rule="nonzero"/>
 </g>
 </symbol>
</svg>
